<svg xmlns="http://www.w3.org/2000/svg" viewBox="0 0 1024 640" width="1024" height="640">

  <defs>
    <linearGradient id="nb" x1="0" y1="0" x2="0" y2="640" gradientUnits="userSpaceOnUse"><stop offset="0" stop-color="#0E0916"/><stop offset="1" stop-color="#171021"/></linearGradient>
    <radialGradient id="n1" cx="0.12" cy="0.1" r="0.7"><stop offset="0" stop-color="#FF6D4D" stop-opacity=".32"/><stop offset="1" stop-color="#FF6D4D" stop-opacity="0"/></radialGradient>
    <radialGradient id="n2" cx="0.9" cy="0.85" r="0.8"><stop offset="0" stop-color="#A24BEA" stop-opacity=".36"/><stop offset="1" stop-color="#A24BEA" stop-opacity="0"/></radialGradient>
    <radialGradient id="n3" cx="0.55" cy="0.4" r="0.5"><stop offset="0" stop-color="#F5487F" stop-opacity=".2"/><stop offset="1" stop-color="#F5487F" stop-opacity="0"/></radialGradient>
  </defs>
  <rect width="1024" height="640" fill="url(#nb)"/>
  <g opacity="0.8"><rect width="1024" height="640" fill="url(#n1)"/><rect width="1024" height="640" fill="url(#n2)"/><rect width="1024" height="640" fill="url(#n3)"/></g>
  <circle class="" cx="437.3" cy="160.66" r="1.1" fill="#FFF6E9" opacity="0.49"/><circle class="" cx="0" cy="4.44" r="0.79" fill="#FFF6E9" opacity="0.56"/><circle class="" cx="994.92" cy="208.69" r="1.91" fill="#FFF6E9" opacity="0.24"/><circle class="" cx="289.12" cy="67.71" r="1.45" fill="#FFF6E9" opacity="0.31"/><circle class="" cx="689.61" cy="10.34" r="2.34" fill="#FFF6E9" opacity="0.18"/><circle class="" cx="805.91" cy="508.48" r="0.91" fill="#FFF6E9" opacity="0.48"/><circle class="" cx="645.43" cy="232.15" r="1.59" fill="#FFF6E9" opacity="0.19"/><circle class="" cx="773.69" cy="435.56" r="1.83" fill="#FFF6E9" opacity="0.35"/><circle class="" cx="877.36" cy="82.28" r="0.98" fill="#FFF6E9" opacity="0.42"/><circle class="" cx="598.9" cy="378.71" r="2.16" fill="#FFF6E9" opacity="0.59"/><circle class="" cx="415.42" cy="173.25" r="2.25" fill="#FFF6E9" opacity="0.17"/><circle class="" cx="559.62" cy="5.46" r="2.33" fill="#FFF6E9" opacity="0.56"/><circle class="" cx="282.31" cy="121.66" r="0.99" fill="#FFF6E9" opacity="0.29"/><circle class="" cx="683.69" cy="496.81" r="2.09" fill="#FFF6E9" opacity="0.44"/><circle class="" cx="167.53" cy="371.62" r="2.35" fill="#FFF6E9" opacity="0.19"/><circle class="" cx="737.5" cy="556.42" r="1.58" fill="#FFF6E9" opacity="0.22"/><circle class="" cx="726.43" cy="416.32" r="1.49" fill="#FFF6E9" opacity="0.17"/><circle class="" cx="482.19" cy="579.44" r="0.78" fill="#FFF6E9" opacity="0.36"/><circle class="" cx="1005.02" cy="353.5" r="2" fill="#FFF6E9" opacity="0.42"/><circle class="" cx="790.95" cy="316.97" r="1.46" fill="#FFF6E9" opacity="0.36"/><circle class="" cx="845.22" cy="169.58" r="1.55" fill="#FFF6E9" opacity="0.59"/><circle class="" cx="11.04" cy="224.83" r="1.37" fill="#FFF6E9" opacity="0.45"/><circle class="" cx="466.29" cy="60.25" r="2.12" fill="#FFF6E9" opacity="0.44"/><circle class="" cx="522.81" cy="226.99" r="0.83" fill="#FFF6E9" opacity="0.6"/><circle class="" cx="216.46" cy="449.37" r="1.87" fill="#FFF6E9" opacity="0.25"/><circle class="" cx="203.91" cy="534.81" r="0.97" fill="#FFF6E9" opacity="0.38"/><circle class="" cx="895.77" cy="360.01" r="1.07" fill="#FFF6E9" opacity="0.56"/><circle class="" cx="54.19" cy="429.37" r="1.87" fill="#FFF6E9" opacity="0.56"/><circle class="" cx="137.64" cy="420.31" r="1.82" fill="#FFF6E9" opacity="0.47"/><circle class="" cx="928.09" cy="116.34" r="2.29" fill="#FFF6E9" opacity="0.3"/><circle class="" cx="587.08" cy="189.17" r="1.32" fill="#FFF6E9" opacity="0.57"/><circle class="" cx="380.28" cy="366.66" r="1.77" fill="#FFF6E9" opacity="0.36"/><circle class="" cx="639.48" cy="116.33" r="1.75" fill="#FFF6E9" opacity="0.43"/><circle class="" cx="372.98" cy="308.69" r="1.16" fill="#FFF6E9" opacity="0.34"/><circle class="" cx="226.3" cy="84.64" r="1.68" fill="#FFF6E9" opacity="0.21"/><circle class="" cx="717.81" cy="93.2" r="2.14" fill="#FFF6E9" opacity="0.52"/><circle class="" cx="601.59" cy="557.55" r="1.16" fill="#FFF6E9" opacity="0.29"/><circle class="" cx="559.72" cy="352.56" r="1.45" fill="#FFF6E9" opacity="0.4"/><circle class="" cx="956.27" cy="115.44" r="2.05" fill="#FFF6E9" opacity="0.48"/><circle class="" cx="123.8" cy="182.14" r="1.37" fill="#FFF6E9" opacity="0.36"/><circle class="" cx="599.07" cy="589.66" r="0.71" fill="#FFF6E9" opacity="0.36"/><circle class="" cx="898.93" cy="179.14" r="1.25" fill="#FFF6E9" opacity="0.19"/><circle class="" cx="976.39" cy="145.5" r="1.55" fill="#FFF6E9" opacity="0.24"/><circle class="" cx="874.78" cy="134.02" r="1.84" fill="#FFF6E9" opacity="0.37"/><circle class="" cx="649.94" cy="24.61" r="1.32" fill="#FFF6E9" opacity="0.6"/><circle class="" cx="360.06" cy="575.69" r="2.2" fill="#FFF6E9" opacity="0.61"/><circle class="" cx="1003.69" cy="325.41" r="0.81" fill="#FFF6E9" opacity="0.55"/><circle class="" cx="858.43" cy="403.46" r="1.06" fill="#FFF6E9" opacity="0.22"/><circle class="" cx="645.7" cy="258.16" r="1.34" fill="#FFF6E9" opacity="0.44"/><circle class="" cx="716.32" cy="440.46" r="1.27" fill="#FFF6E9" opacity="0.29"/><circle class="" cx="393.12" cy="6.11" r="1.13" fill="#FFF6E9" opacity="0.45"/><circle class="" cx="591.55" cy="104.92" r="0.79" fill="#FFF6E9" opacity="0.42"/><circle class="" cx="1017.18" cy="544.21" r="1.1" fill="#FFF6E9" opacity="0.52"/><circle class="" cx="800.06" cy="244.44" r="1.71" fill="#FFF6E9" opacity="0.17"/><circle class="" cx="265.26" cy="621.1" r="0.82" fill="#FFF6E9" opacity="0.31"/><path class="" d="M 863.99 396.57 L 866.77 401.5 L 871.7 404.28 L 866.77 407.06 L 863.99 411.99 L 861.21 407.06 L 856.28 404.28 L 861.21 401.5 Z" fill="#FFC24D" opacity="0.7"/><path class="" d="M 462.36 480.32 L 464.56 484.24 L 468.48 486.44 L 464.56 488.64 L 462.36 492.56 L 460.16 488.64 L 456.24 486.44 L 460.16 484.24 Z" fill="#FFC24D" opacity="0.68"/><path class="" d="M 850.94 590.02 L 852.28 592.39 L 854.65 593.73 L 852.28 595.07 L 850.94 597.44 L 849.6 595.07 L 847.23 593.73 L 849.6 592.39 Z" fill="#FFC24D" opacity="0.97"/><path class="" d="M 664.09 51.95 L 665.43 54.34 L 667.82 55.68 L 665.43 57.02 L 664.09 59.41 L 662.75 57.02 L 660.36 55.68 L 662.75 54.34 Z" fill="#FFC24D" opacity="0.52"/><path class="" d="M 88.14 426.97 L 89.34 429.09 L 91.46 430.29 L 89.34 431.49 L 88.14 433.61 L 86.94 431.49 L 84.82 430.29 L 86.94 429.09 Z" fill="#FFF6E9" opacity="0.9"/>
</svg>
