<svg xmlns="http://www.w3.org/2000/svg" viewBox="0 0 120 120" width="64" height="64">
<style>@media (prefers-color-scheme: dark){.lk-glass{fill:#FFF6E9;fill-opacity:.07}.lk-text{stroke:#FFF6E9}.lk-bg{fill:url(#bgDark)}.lk-dot{fill:#FFF6E9;opacity:.9}.lk-wash{opacity:.5}}</style><defs><linearGradient id="nebula" x1="20" y1="23" x2="100" y2="103" gradientUnits="userSpaceOnUse"><stop offset="0" stop-color="#FF6D4D"/><stop offset=".55" stop-color="#F5487F"/><stop offset="1" stop-color="#A24BEA"/></linearGradient></defs>
  <line x1="60" y1="20" x2="60" y2="12" stroke="url(#nebula)" stroke-width="4" stroke-linecap="round"/>
  <circle cx="60" cy="9.5" r="3.4" fill="#FFC24D"/>
  <circle class="lk-glass" cx="60" cy="63" r="40" fill="#241833" fill-opacity="1"/>
  <g fill="#DE8F55">
    <rect x="36.5" y="42" width="13" height="33" rx="6.5" transform="rotate(14 43 58)"/>
    <rect x="70.5" y="42" width="13" height="33" rx="6.5" transform="rotate(-14 77 58)"/>
  </g>
  <circle cx="60" cy="64" r="24" fill="#F9EDDC"/>
  <circle cx="51" cy="60" r="8.5" fill="#DE8F55"/>
  <circle cx="51" cy="61" r="4" fill="#2A1A35"/>
  <circle cx="69" cy="61" r="4" fill="#2A1A35"/>
  <ellipse cx="60" cy="71" rx="5.2" ry="4.1" fill="#2A1A35"/>
  <path d="M60 74 L60 77.5 M60 77.5 C57.2 80.4 54.4 79.4 53.4 77.4 M60 77.5 C62.8 80.4 65.6 79.4 66.6 77.4" fill="none" stroke="#2A1A35" stroke-width="2.4" stroke-linecap="round"/>
  <circle cx="60" cy="63" r="40" fill="none" stroke="url(#nebula)" stroke-width="7"/>
  <path d="M 75.5 27 L 78.74 32.76 L 84.5 36 L 78.74 39.24 L 75.5 45 L 72.26 39.24 L 66.5 36 L 72.26 32.76 Z" fill="#FFC24D"/>
  
</svg>
