<svg xmlns="http://www.w3.org/2000/svg" viewBox="0 0 120 120" width="512" height="512">
<defs><linearGradient id="nebula" x1="20" y1="23" x2="100" y2="103" gradientUnits="userSpaceOnUse"><stop offset="0" stop-color="#FF6D4D"/><stop offset=".55" stop-color="#F5487F"/><stop offset="1" stop-color="#A24BEA"/></linearGradient></defs>
  <line x1="60" y1="20" x2="60" y2="12" stroke="url(#nebula)" stroke-width="4" stroke-linecap="round"/>
  <circle cx="60" cy="9.5" r="3.4" fill="#FFC24D"/>
  <circle class="lk-glass" cx="60" cy="63" r="40" fill="#FFF6E9" fill-opacity="0.07"/>
  <g fill="#DE8F55">
    <rect x="36.5" y="42" width="13" height="33" rx="6.5" transform="rotate(14 43 58)"/>
    <rect x="70.5" y="42" width="13" height="33" rx="6.5" transform="rotate(-14 77 58)"/>
  </g>
  <circle cx="60" cy="64" r="24" fill="#F9EDDC"/>
  <circle cx="51" cy="60" r="8.5" fill="#DE8F55"/>
  <circle cx="51" cy="61" r="3.3" fill="#2A1A35"/>
  <circle cx="69" cy="61" r="3.3" fill="#2A1A35"/>
  <ellipse cx="60" cy="71" rx="4.4" ry="3.5" fill="#2A1A35"/>
  <path d="M60 74 L60 77.5 M60 77.5 C57.2 80.4 54.4 79.4 53.4 77.4 M60 77.5 C62.8 80.4 65.6 79.4 66.6 77.4" fill="none" stroke="#2A1A35" stroke-width="1.8" stroke-linecap="round"/>
  <circle cx="60" cy="63" r="40" fill="none" stroke="url(#nebula)" stroke-width="7"/>
  <path d="M 75.5 28.5 L 78.2 33.3 L 83 36 L 78.2 38.7 L 75.5 43.5 L 72.8 38.7 L 68 36 L 72.8 33.3 Z" fill="#FFC24D"/>
  <circle cx="38" cy="86" r="1.8" fill="#FFC24D"/>
</svg>
