<svg viewBox="0 0 680 520" width="680" height="520" xmlns="http://www.w3.org/2000/svg" font-family="DejaVu Sans Mono, JetBrains Mono, monospace">
<rect x="0" y="0" width="680" height="520" rx="6" fill="#0A0A0C" stroke="#26262C" stroke-width="1"/>
<text x="16" y="22" font-size="11" fill="#EFC53F" font-weight="500">SESSION</text>
<text x="80" y="22" font-size="11" fill="#777782">▸ plan r3 · task 3 wire dedup digest · 2/6</text>
<text x="500" y="22" font-size="11" fill="#4B4B56">tab expand</text>
<text x="600" y="22" font-size="12" fill="#E8E8EC" font-weight="500">stella</text>
<text x="645" y="22" font-size="12" fill="#EFC53F" font-weight="500">*</text>
<line x1="0" y1="32" x2="680" y2="32" stroke="#26262C" stroke-width="1"/>
<line x1="16" y1="52" x2="664" y2="52" stroke="#2C2C33" stroke-width="1"/>
<rect x="24" y="44" width="300" height="14" fill="#0A0A0C"/>
<text x="28" y="56" font-size="11" fill="#EFC53F">turn 14</text>
<text x="82" y="56" font-size="11" fill="#777782">execute · kimi-k3 · budget $0.60</text>
<line x1="20" y1="70" x2="20" y2="100" stroke="#A9AAB5" stroke-width="2"/>
<text x="32" y="82" font-size="12" fill="#A9AAB5">✦ skill</text>
<text x="96" y="82" font-size="12" fill="#E8E8EC">oxagen-feature</text>
<text x="222" y="82" font-size="11" fill="#4B4B56">auto</text>
<text x="600" y="82" font-size="11" fill="#777782">1.2k tok</text>
<text x="32" y="100" font-size="11" fill="#777782">injected 10-layer feature contract · used 42× this repo</text>
<line x1="20" y1="116" x2="20" y2="126" stroke="#55555E" stroke-width="2"/>
<text x="32" y="126" font-size="12" fill="#A9AAB5">▸ read</text>
<text x="92" y="126" font-size="11" fill="#E8E8EC">…/self_driving_cmd/lifecycle.rs</text>
<text x="342" y="126" font-size="11" fill="#4B4B56">221 lines</text>
<text x="558" y="126" font-size="11" fill="#777782">⚡3ms · ↵ open</text>
<line x1="20" y1="142" x2="20" y2="298" stroke="#EFC53F" stroke-width="2"/>
<text x="32" y="154" font-size="12" fill="#EFC53F">● edit</text>
<text x="92" y="154" font-size="11" fill="#E8E8EC">…/self_driving_cmd.rs</text>
<text x="272" y="154" font-size="11" fill="#74C991">+3</text>
<text x="296" y="154" font-size="11" fill="#E0687A">-1</text>
<text x="560" y="154" font-size="11" fill="#777782">⚡2ms · → task 3</text>
<rect x="32" y="162" width="632" height="118" fill="#0F0F12"/>
<text x="40" y="180" font-size="11" fill="#4B4B56">120</text>
<text x="72" y="180" font-size="11" fill="#BFC1CC">Seen</text>
<text x="112" y="180" font-size="11" fill="#E8E8EC">{</text>
<text x="40" y="198" font-size="11" fill="#4B4B56">121</text>
<text x="72" y="198" font-size="11" fill="#565660">/// Digest a finding into its dedup key.</text>
<rect x="32" y="204" width="632" height="18" fill="#241019"/>
<text x="40" y="217" font-size="11" fill="#E0687A">122 -</text>
<text x="88" y="217" font-size="11" fill="#E8E8EC">digest:</text>
<text x="148" y="217" font-size="11" fill="#BFC1CC">Vec</text>
<text x="172" y="217" font-size="11" fill="#E8E8EC">&lt;</text>
<text x="180" y="217" font-size="11" fill="#BFC1CC">String</text>
<text x="228" y="217" font-size="11" fill="#E8E8EC">&gt;,</text>
<rect x="32" y="222" width="632" height="18" fill="#10201A"/>
<text x="40" y="235" font-size="11" fill="#74C991">122 +</text>
<text x="88" y="235" font-size="11" fill="#E8E8EC">digest:</text>
<text x="148" y="235" font-size="11" fill="#BFC1CC">BTreeSet</text>
<text x="212" y="235" font-size="11" fill="#E8E8EC">&lt;</text>
<text x="220" y="235" font-size="11" fill="#BFC1CC">DigestKey</text>
<text x="292" y="235" font-size="11" fill="#E8E8EC">&gt;,</text>
<rect x="32" y="240" width="632" height="18" fill="#10201A"/>
<text x="40" y="253" font-size="11" fill="#74C991">123 +</text>
<text x="88" y="253" font-size="11" fill="#E8E8EC">seen_path:</text>
<text x="172" y="253" font-size="11" fill="#BFC1CC">PathBuf</text>
<text x="228" y="253" font-size="11" fill="#E8E8EC">,</text>
<text x="40" y="273" font-size="11" fill="#4B4B56">124</text>
<text x="72" y="273" font-size="11" fill="#E8E8EC">}</text>
<text x="32" y="296" font-size="11" fill="#4B4B56">rust · → task 3 · ↵ open in FILES</text>
<line x1="16" y1="318" x2="664" y2="318" stroke="#2C2C33" stroke-width="1"/>
<rect x="24" y="310" width="196" height="14" fill="#0A0A0C"/>
<text x="28" y="322" font-size="11" fill="#EFC53F">turn 14 done</text>
<text x="126" y="322" font-size="11" fill="#777782">· 0:42</text>
<text x="32" y="342" font-size="11" fill="#777782">receipt</text>
<text x="92" y="342" font-size="11" fill="#EFC53F">$0.11</text>
<text x="140" y="342" font-size="11" fill="#E8E8EC">18k tok</text>
<text x="204" y="342" font-size="11" fill="#A9AAB5">det 86%</text>
<text x="272" y="342" font-size="11" fill="#74C991">4/4 tests</text>
<text x="350" y="342" font-size="11" fill="#E8E8EC">2 files</text>
<text x="412" y="342" font-size="11" fill="#A9AAB5">1 memory</text>
<text x="490" y="342" font-size="11" fill="#777782">· ↵ audit</text>
<line x1="16" y1="366" x2="664" y2="366" stroke="#2C2C33" stroke-width="1"/>
<rect x="24" y="358" width="270" height="14" fill="#0A0A0C"/>
<text x="28" y="370" font-size="11" fill="#EFC53F">turn 15</text>
<text x="82" y="370" font-size="11" fill="#777782">verify · gates 0/5 · det only</text>
<line x1="20" y1="384" x2="20" y2="394" stroke="#EFC53F" stroke-width="2"/>
<text x="32" y="394" font-size="12" fill="#EFC53F">◇ gate</text>
<text x="92" y="394" font-size="11" fill="#E8E8EC">types</text>
<text x="140" y="394" font-size="11" fill="#F7D96B">◐ running</text>
<text x="588" y="394" font-size="11" fill="#4B4B56">$0.00</text>
<text x="16" y="428" font-size="12" fill="#EFC53F" font-weight="500">&gt;&gt;&gt;</text>
<rect x="46" y="418" width="7" height="13" fill="#E8E8EC"/>
<text x="16" y="452" font-size="11" fill="#4B4B56">⏎ queue · esc steer · ^N failure · ^Z fold turn · / commands</text>
<line x1="0" y1="464" x2="680" y2="464" stroke="#26262C" stroke-width="1"/>
<text x="16" y="486" font-size="11" fill="#777782">kimi-k3 · execute · ctx</text>
<text x="196" y="486" font-size="12" fill="#EFC53F">███▊</text>
<text x="236" y="486" font-size="12" fill="#26262C">░░░░░░</text>
<text x="292" y="486" font-size="11" fill="#E8E8EC">35%</text>
<text x="330" y="486" font-size="11" fill="#EFC53F">$0.45</text>
<text x="386" y="486" font-size="11" fill="#777782">saved</text>
<text x="428" y="486" font-size="11" fill="#EFC53F">$0.69</text>
<text x="486" y="486" font-size="11" fill="#A9AAB5">det 86%</text>
<text x="560" y="486" font-size="11" fill="#A9AAB5">✉ 21</text>
<text x="606" y="486" font-size="11" fill="#777782">? help</text>
</svg>
