<svg xmlns="http://www.w3.org/2000/svg" viewBox="0 0 320 250" width="640" height="500">
<g transform="translate(100 0)">
  <defs>
    <mask id="mEars"><rect width="120" height="120" fill="#fff"/><circle cx="60" cy="64" r="24" fill="#000"/></mask>
    <mask id="mRing"><rect width="120" height="120" fill="#fff"/><path d="M 88.3 24.2 L 92.1 30.9 L 98.8 34.7 L 92.1 38.5 L 88.3 45.2 L 84.5 38.5 L 77.8 34.7 L 84.5 30.9 Z" fill="#000"/></mask>
  </defs>
  <line class="lk-cs" x1="60" y1="20" x2="60" y2="12" stroke="#FFF6E9" stroke-width="4" stroke-linecap="round"/>
  <circle class="lk-cf" cx="60" cy="9.5" r="3.4" fill="#FFF6E9"/>
  <g  mask="url(#mEars)">
    <rect class="lk-cf" x="30.5" y="38" width="13" height="30" rx="6.5" transform="rotate(20 37 53)" fill="#FFF6E9"/>
    <rect class="lk-cf" x="76.5" y="38" width="13" height="30" rx="6.5" transform="rotate(-20 83 53)" fill="#FFF6E9"/>
  </g>
  <circle class="lk-cs" cx="60" cy="64" r="24" fill="none" stroke="#FFF6E9" stroke-width="4"/>
  <circle class="lk-cs" cx="51" cy="60" r="8.5" fill="none" stroke="#FFF6E9" stroke-width="3"/>
  <circle class="lk-cf" cx="51" cy="61" r="3.3" fill="#FFF6E9"/>
  <circle class="lk-cf" cx="69" cy="61" r="3.3" fill="#FFF6E9"/>
  <ellipse class="lk-cf" cx="60" cy="71" rx="4.4" ry="3.5" fill="#FFF6E9"/>
  <path class="lk-cs" d="M60 74 L60 77.5 M60 77.5 C57.2 80.4 54.4 79.4 53.4 77.4 M60 77.5 C62.8 80.4 65.6 79.4 66.6 77.4" fill="none" stroke="#FFF6E9" stroke-width="1.8" stroke-linecap="round"/>
  <g mask="url(#mRing)"><circle class="lk-cs" cx="60" cy="63" r="40" fill="none" stroke="#FFF6E9" stroke-width="7"/></g>
  <circle class="lk-cf" cx="38" cy="86" r="1.8" fill="#FFF6E9"/></g><g transform="translate(40 130) scale(0.75)"><g class="lk-cs" fill="none" stroke="#FFF6E9" stroke-width="13" stroke-linecap="round" stroke-linejoin="round">
    <path d="M50 54 C46.5 49 37 47.5 31 51.5 C25.5 55.5 26.5 63 33.5 66 L43.5 70 C50.5 73 51.5 81 46 85 C40 89.5 29.5 88 25 82.5"/>
    <path d="M76 26 L76 79 A 15 15 0 0 0 91 94"/>
    <path d="M64 44 L89 44"/>
    <path d="M107 68 L143 68 A 18 18 0 1 0 138 81"/>
    <path d="M160 26 L160 79 A 15 15 0 0 0 175 94"/>
    <path d="M193 26 L193 79 A 15 15 0 0 0 208 94"/>
    <circle cx="243" cy="68" r="19"/>
    <path d="M262 52 L262 94"/>
  </g><path class="lk-cf" d="M 285 26.5 L 289.3 35.2 L 298 39.5 L 289.3 43.8 L 285 52.5 L 280.7 43.8 L 272 39.5 L 280.7 35.2 Z" fill="#FFF6E9"/></g>
</svg>
